<svg id="Layer_1" data-name="Layer 1" xmlns="http://www.w3.org/2000/svg" viewBox="0 0 300 150"><defs><style>.cls-1{fill:#4591ce;}.cls-1,.cls-2,.cls-3{fill-rule:evenodd;}.cls-2{fill:#fdc400;}.cls-3{fill:#e63b14;}.cls-4{fill:#1d1e1c;}.cls-5{fill:#1d1d1b;}</style></defs><path class="cls-1" d="M170.4,47.48s43.25,55.22,9.28,31.62c0,0-17.15-14.16-26.27-19.82,0,0-32.41,72-12.59-3,0,0-69-9.12-.31-12.11,0,0-19.82-27,14.16-4.72,0,0,55.68-38.54,14.78,7.71l1,.31Z"/><path class="cls-2" d="M133.59,61.33c0,2.2-2.2,3.93-4.88,3.93S124,63.53,124,61.33c0-2,2.05-3.78,4.72-3.78s4.88,1.73,4.88,3.78Z"/><path class="cls-3" d="M131.54,79.26c0,4.72-3.14,8.65-6.92,8.65-3.93,0-6.92-3.93-6.92-8.65s3-8.5,6.92-8.5c3.78,0,6.92,3.78,6.92,8.5Z"/><rect class="cls-4" y="93.35" width="300" height="1.88"/><path class="cls-5" d="M17.48,114.5A37.26,37.26,0,0,1,16,118.71a23.55,23.55,0,0,1-4.91.67c-6.9,0-10-4.49-10-8.89,0-5.5,4.19-9.25,10.45-9.25a27.81,27.81,0,0,1,5,.63c.13,1.24.32,3.09.51,4.32l-1,.18c-.55-2-1.3-3-2.7-3.56a6.85,6.85,0,0,0-2.49-.43c-4.06,0-6.14,3.25-6.14,7.52,0,5,2.56,8.3,6.46,8.3,2.41,0,3.85-1.21,5.27-4Z"/><path class="cls-5" d="M25.65,106.84a5.87,5.87,0,0,1,6,6,6.15,6.15,0,1,1-12.29.34A6.23,6.23,0,0,1,25.65,106.84Zm-.32,1c-1.32,0-2.56,1.33-2.56,4.55s1.23,5.85,3.09,5.85c1.24,0,2.44-.87,2.44-4.69C28.3,110.07,27.23,107.86,25.33,107.86Z"/><path class="cls-5" d="M47.87,119v-.85c1.24-.16,1.43-.27,1.43-2v-4.57c0-2.1-.9-2.78-2-2.78a3.72,3.72,0,0,0-2.32,1c0,.32.06.69.06,1.13v5.33c0,1.56.13,1.69,1.45,1.85V119H40.56v-.85c1.34-.16,1.5-.25,1.5-1.87v-4.77c0-1.93-.71-2.71-1.92-2.71a4,4,0,0,0-2.36,1v6.47c0,1.59.17,1.71,1.34,1.87V119h-6v-.85c1.58-.18,1.68-.28,1.68-1.94v-5.62c0-1.57-.05-1.77-1.39-2v-.79a22.7,22.7,0,0,0,4.36-1v2.07c.57-.41,1.08-.8,1.75-1.2a4,4,0,0,1,2.21-.79,3.1,3.1,0,0,1,3,2.09c.68-.52,1.27-.92,1.94-1.37a4,4,0,0,1,2.12-.72c2.24,0,3.49,1.55,3.49,4.24v5.18c0,1.58.14,1.68,1.53,1.87V119Z"/><path class="cls-5" d="M65.43,116.49a6.08,6.08,0,0,1-4.73,2.81c-3.47,0-5.48-2.65-5.48-5.79a7,7,0,0,1,1.91-4.77,5.8,5.8,0,0,1,4.1-1.9,4.31,4.31,0,0,1,4.3,4.29c0,.48-.06.86-.42,1-.51.12-4.16.33-7,.43,0,3.1,1.84,4.55,3.75,4.55A4.59,4.59,0,0,0,65,115.8Zm-4.77-8.58c-1.13,0-2.14,1.22-2.37,3.35,1.23,0,2.42,0,3.7-.08.41,0,.57-.1.57-.53C62.59,109.28,61.86,107.91,60.66,107.91Z"/><path class="cls-5" d="M73.67,119H66.94v-.85c1.51-.16,1.65-.29,1.65-1.94v-5.75c0-1.49-.11-1.6-1.47-1.84v-.77a21.45,21.45,0,0,0,4.45-1v2.91c1.11-1.69,2.13-2.85,3.31-2.85a1.54,1.54,0,0,1,1.67,1.5,2.34,2.34,0,0,1-1.21,2,.66.66,0,0,1-.78-.11c-.43-.38-.77-.75-1.24-.75s-1.23.51-1.75,1.65v5.06c0,1.66.17,1.76,2.1,1.95Z"/><path class="cls-5" d="M87.6,116.46A6.21,6.21,0,0,1,83,119.3a5.55,5.55,0,0,1-5.69-5.69A6.37,6.37,0,0,1,80,108.46a7.56,7.56,0,0,1,4.45-1.62,4.19,4.19,0,0,1,2.4.67,1,1,0,0,1,.48.92,1.58,1.58,0,0,1-1.12,1.39.82.82,0,0,1-.56-.28,4.44,4.44,0,0,0-2.75-1.3c-1.3,0-2.66,1.18-2.66,4,0,3.61,2.57,4.79,3.86,4.79a4.08,4.08,0,0,0,3-1.24Z"/><path class="cls-5" d="M88.64,119v-.85c1.53-.18,1.7-.29,1.7-2.16v-5.32c0-1.74-.12-1.85-1.49-2v-.8a25.7,25.7,0,0,0,4.47-1V116c0,1.81.13,2,1.75,2.16V119Zm3-14.15a1.78,1.78,0,0,1-1.75-1.73,1.75,1.75,0,0,1,1.77-1.74,1.7,1.7,0,0,1,1.73,1.74A1.74,1.74,0,0,1,91.65,104.83Z"/><path class="cls-5" d="M105,119.3a2.26,2.26,0,0,1-1.51-.54,2.55,2.55,0,0,1-.68-1.06c-1,.69-2.34,1.6-3,1.6a3.43,3.43,0,0,1-3.51-3.39c0-1.38.67-2.09,2.11-2.63a21.38,21.38,0,0,0,4.27-1.76v-1c0-1.57-.66-2.45-1.9-2.45a1.39,1.39,0,0,0-1.13.56,5.28,5.28,0,0,0-.67,1.75,1,1,0,0,1-1,.81,1.51,1.51,0,0,1-1.43-1.32c0-.44.33-.78.91-1.19a12.88,12.88,0,0,1,4.13-1.89,4.31,4.31,0,0,1,2.57.76,3.63,3.63,0,0,1,1.44,3.22v4.81c0,1.27.43,1.61.88,1.61a2,2,0,0,0,.87-.25l.29.86Zm-2.28-6.74c-.51.28-1.28.65-1.84.93-.89.44-1.42.93-1.42,1.87a1.86,1.86,0,0,0,1.73,2,2.19,2.19,0,0,0,1.53-.62Z"/><path class="cls-5" d="M132.38,111.67c-1.57.25-1.73.38-1.73,2.11v2.12a14.32,14.32,0,0,0,.16,2.57,34.86,34.86,0,0,1-6.33.91c-6.2,0-9.84-3.8-9.84-9.12,0-5.88,4.79-9,10.36-9a35.49,35.49,0,0,1,5.45.63c.06,1.11.24,3,.44,4.55l-1,.18c-.64-2.28-1.56-3.36-3.22-3.92a8.55,8.55,0,0,0-2.35-.33c-3.53,0-6,2.81-6,7.51,0,4.54,1.85,8.43,6.51,8.43a4.16,4.16,0,0,0,1.91-.4c.45-.27.71-.67.71-1.59V114c0-1.9-.31-2.1-2.67-2.34v-.91h7.6Z"/><path class="cls-5" d="M133.56,119v-.85c1.59-.21,1.7-.35,1.7-2.06V103.69c0-1.47-.15-1.63-1.65-1.9V101a24.13,24.13,0,0,0,4.63-.91v16c0,1.77.11,1.88,1.71,2.06V119Z"/><path class="cls-5" d="M147.49,106.84a5.87,5.87,0,0,1,6,6,6.15,6.15,0,1,1-12.29.34A6.23,6.23,0,0,1,147.49,106.84Zm-.32,1c-1.32,0-2.56,1.33-2.56,4.55s1.23,5.85,3.09,5.85c1.24,0,2.44-.87,2.44-4.69C150.14,110.07,149.07,107.86,147.17,107.86Z"/><path class="cls-5" d="M160.63,107.27a4.16,4.16,0,0,1,1.64-.43,5.45,5.45,0,0,1,5.37,5.65,6.88,6.88,0,0,1-6.88,6.81,11.54,11.54,0,0,1-4.53-1c0-.66,0-1.4,0-2.08V103.71c0-1.57-.14-1.77-1.71-1.89V101a31.33,31.33,0,0,0,4.69-.91v7.81Zm-1.4,8.72a2.56,2.56,0,0,0,.15.92,2.53,2.53,0,0,0,2.16,1.3c1.72,0,2.8-1.72,2.8-4.91s-1.74-4.78-3.56-4.78a4.28,4.28,0,0,0-1.55.29Z"/><path class="cls-5" d="M178,119.3a2.26,2.26,0,0,1-1.51-.54,2.45,2.45,0,0,1-.68-1.06c-1,.69-2.34,1.6-3,1.6a3.43,3.43,0,0,1-3.51-3.39c0-1.38.67-2.09,2.11-2.63a21.65,21.65,0,0,0,4.27-1.76v-1c0-1.57-.66-2.45-1.9-2.45a1.39,1.39,0,0,0-1.13.56,5.28,5.28,0,0,0-.67,1.75,1,1,0,0,1-1,.81,1.52,1.52,0,0,1-1.44-1.32c0-.44.33-.78.92-1.19a12.88,12.88,0,0,1,4.13-1.89,4.31,4.31,0,0,1,2.57.76,3.62,3.62,0,0,1,1.43,3.22v4.81c0,1.27.44,1.61.89,1.61a2,2,0,0,0,.87-.25l.29.86Zm-2.28-6.74c-.52.28-1.28.65-1.84.93-.89.44-1.42.93-1.42,1.87a1.86,1.86,0,0,0,1.73,2,2.19,2.19,0,0,0,1.53-.62Z"/><path class="cls-5" d="M181.15,119v-.85c1.59-.21,1.7-.35,1.7-2.06V103.69c0-1.47-.15-1.63-1.65-1.9V101a24.13,24.13,0,0,0,4.63-.91v16c0,1.77.11,1.88,1.71,2.06V119Z"/><path class="cls-5" d="M202.13,101.61a8.29,8.29,0,0,1,4.7,1.12,4.46,4.46,0,0,1,2,3.93c0,3.89-3.31,5.5-6.06,5.51a5.51,5.51,0,0,1-.77,0l-1.65-.43v3.82c0,2.25.18,2.34,2.56,2.57v.9h-8.11v-.9c2.11-.24,2.32-.35,2.32-2.59V105.15c0-2.3-.28-2.47-2.32-2.63v-.91Zm-1.8,9a3.93,3.93,0,0,0,1.6.29c1.43,0,3.51-.79,3.51-4.26,0-3-1.74-4-3.65-4a1.89,1.89,0,0,0-1.2.29c-.2.17-.26.46-.26,1Z"/><path class="cls-5" d="M218.66,119.3a2.26,2.26,0,0,1-1.51-.54,2.45,2.45,0,0,1-.68-1.06c-1,.69-2.34,1.6-3,1.6a3.43,3.43,0,0,1-3.51-3.39c0-1.38.67-2.09,2.11-2.63a21.65,21.65,0,0,0,4.27-1.76v-1c0-1.57-.66-2.45-1.9-2.45a1.39,1.39,0,0,0-1.13.56,5.28,5.28,0,0,0-.67,1.75,1,1,0,0,1-1,.81,1.52,1.52,0,0,1-1.44-1.32c0-.44.33-.78.92-1.19a12.88,12.88,0,0,1,4.13-1.89,4.31,4.31,0,0,1,2.57.76,3.62,3.62,0,0,1,1.43,3.22v4.81c0,1.27.44,1.61.89,1.61A2,2,0,0,0,221,117l.29.86Zm-2.28-6.74c-.52.28-1.28.65-1.84.93-.89.44-1.42.93-1.42,1.87a1.86,1.86,0,0,0,1.73,2,2.19,2.19,0,0,0,1.53-.62Z"/><path class="cls-5" d="M233.75,108c-1.32.2-1.6.44-2.27,1.91s-1.4,3.37-3,7.41a79.38,79.38,0,0,0-2.77,7.51c-.18.58-.49.75-.91.75a1.87,1.87,0,0,1-1.94-1.56c0-.4.17-.62.67-1a5.66,5.66,0,0,0,2.09-1.94,16.17,16.17,0,0,0,.82-1.82,1.47,1.47,0,0,0-.09-1c-1.27-3.57-2.89-7.1-3.48-8.5-.52-1.24-.81-1.56-2.16-1.75v-.84h6.23V108c-1.17.19-1.34.4-1,1.29l2.26,6c.65-1.6,1.65-4.24,2.16-5.8.28-.91,0-1.24-1.42-1.45v-.84h4.89Z"/><path class="cls-5" d="M248.75,119v-.85c1.24-.16,1.43-.27,1.43-2v-4.57c0-2.1-.9-2.78-2-2.78a3.72,3.72,0,0,0-2.32,1c0,.32.06.69.06,1.13v5.33c0,1.56.14,1.69,1.45,1.85V119h-5.91v-.85c1.34-.16,1.5-.25,1.5-1.87v-4.77c0-1.93-.7-2.71-1.92-2.71a4,4,0,0,0-2.36,1v6.47c0,1.59.17,1.71,1.34,1.87V119h-6v-.85c1.58-.18,1.68-.28,1.68-1.94v-5.62c0-1.57-.05-1.77-1.39-2v-.79a22.7,22.7,0,0,0,4.36-1v2.07c.57-.41,1.08-.8,1.75-1.2a4,4,0,0,1,2.21-.79,3.1,3.1,0,0,1,3,2.09c.68-.52,1.27-.92,1.94-1.37a4,4,0,0,1,2.12-.72c2.24,0,3.49,1.55,3.49,4.24v5.18c0,1.58.15,1.68,1.53,1.87V119Z"/><path class="cls-5" d="M266.31,116.49a6.08,6.08,0,0,1-4.73,2.81c-3.47,0-5.48-2.65-5.48-5.79a7,7,0,0,1,1.91-4.77,5.8,5.8,0,0,1,4.1-1.9,4.31,4.31,0,0,1,4.3,4.29c0,.48-.06.86-.41,1-.52.12-4.17.33-7,.43.05,3.1,1.84,4.55,3.75,4.55a4.57,4.57,0,0,0,3.07-1.26Zm-4.77-8.58c-1.13,0-2.14,1.22-2.37,3.35,1.23,0,2.42,0,3.7-.08.41,0,.57-.1.57-.53C263.47,109.28,262.74,107.91,261.54,107.91Z"/><path class="cls-5" d="M275.48,119v-.85c1.28-.16,1.38-.29,1.38-2.13v-4.51c0-1.89-.84-2.71-2.06-2.71a3.76,3.76,0,0,0-2.34,1v6.39c0,1.7.12,1.79,1.39,1.95V119H267.8v-.85c1.52-.22,1.68-.28,1.68-2v-5.54c0-1.65-.21-1.73-1.48-2v-.8a23.09,23.09,0,0,0,4.49-1c0,.46,0,1.37,0,2,.53-.37,1.1-.77,1.75-1.17a3.81,3.81,0,0,1,2.13-.74c2.15,0,3.5,1.58,3.5,4.26v5.06c0,1.71.17,1.79,1.54,2V119Z"/><path class="cls-5" d="M288,119a2.85,2.85,0,0,1-1.09.31c-1.94,0-3.06-1-3.06-3.31v-7.57h-1.75l-.14-.32.75-.93h1.14v-2.23c.77-.61,1.9-1.41,2.68-2l.37.16c0,.86-.08,2.32-.07,4.08h2.81a1,1,0,0,1-.2,1.25h-2.61v6.65c0,2.11.86,2.41,1.43,2.41a3.52,3.52,0,0,0,1.41-.33l.25.87Z"/><path class="cls-5" d="M298,110.54c-.62-1.76-1.45-2.69-2.84-2.69a1.46,1.46,0,0,0-1.5,1.53c0,1,.71,1.52,2.13,2.17,2.21,1,3.57,1.88,3.57,3.87,0,2.59-2.43,3.88-4.68,3.88a8.09,8.09,0,0,1-3.32-.78c-.12-.67-.36-2.38-.45-3.3l.84-.15c.54,1.69,1.58,3.2,3.36,3.2a1.5,1.5,0,0,0,1.65-1.53c0-1-.52-1.58-2.09-2.34-1.8-.88-3.45-1.78-3.45-3.9s1.71-3.66,4.43-3.66a12.34,12.34,0,0,1,2.78.39c.08.69.3,2.39.42,3.08Z"/></svg>